# xmcd
#
# Track frame offsets: 
#        150
#        19065
#        36533
#        51955
#        66148
#        84625
#        98458
#        115551
#        132805
#        148208
#        163796
#        183960
#        198059
#        218785
#        234589
#        255316
#        272295
#        287235
#        304643
#        318404
#        339633
#
# Disc length: 4799 seconds
#
# Revision: 0
# Processed by: cddbd v1.5.1PL0 Copyright (c) Steve Scherf et al.
# Submitted via: ExactAudioCopy v0.95a3
#
DISCID=2712bd15
DTITLE=Various Artist - Русская Дискотека 27
DYEAR=2000
DGENRE=Pop
TTITLE0=Филипп Киркоров - Чили-Чача
TTITLE1=Натали - Первая Любовь
TTITLE2=Полярная Звезда - Жду Тебя
TTITLE3=140 Ударов В Минуту - Синие Глаза
TTITLE4=Валдай - Хотеть Не Вредно
TTITLE5=Ахи-Вздохи - Киданула
TTITLE6=Reflex - Новый День, Без Меня
TTITLE7=DVD - Я Чувствую Тебя
TTITLE8=Основной Инстинкт - Бич-Пати
TTITLE9=Охо-Хо - Далеко
TTITLE10=Таня Буланова - Мой Сон
TTITLE11=Леонид Агутин - Я Не Понимаю
TTITLE12=Алла Пугачёва - Мадам Брошника (Dj Бармалей and Dj Ice Remix)
TTITLE13=Синяя Птица and Основной Инстинкт - Так Вот Какая Ты (Dance Rem
TTITLE13=ix)
TTITLE14=Виктор Салтыков - Кони В Яблоках (Dance Remix)
TTITLE15=Наталья Гулькина - Солнечное Лето (Dance Remix)
TTITLE16=С. Бархат - Жёлто-Белая Луна
TTITLE17=Иzюм - Ночь
TTITLE18=Ворон Light - Той Девчонке
TTITLE19=Лето - Краски Лета
TTITLE20=Вирус - Позови Меня (ATB Remix)
EXTD=
EXTT0=
EXTT1=
EXTT2=
EXTT3=
EXTT4=
EXTT5=
EXTT6=
EXTT7=
EXTT8=
EXTT9=
EXTT10=
EXTT11=
EXTT12=
EXTT13=
EXTT14=
EXTT15=
EXTT16=
EXTT17=
EXTT18=
EXTT19=
EXTT20=
PLAYORDER=
